<svg xmlns="http://www.w3.org/2000/svg" viewBox="0 0 24 24" aria-hidden="true">
  <path fill="#ffffff" d="M12 9c-1.6 0-3.15.25-4.6.72v3.1c0 .39-.23.74-.56.9-.98.49-1.87 1.12-2.66 1.85-.18.18-.29.43-.29.71v2.01c0 .55.45 1 1 1h4c.55 0 1-.45 1-1v-3.5c0-.55-.45-1-1-1h-1v-1.79c1.05-.21 2.13-.32 3.21-.32 1.08 0 2.16.11 3.21.32V12h-1c-.55 0-1 .45-1 1V16.5c0 .55.45 1 1 1h4c.55 0 1-.45 1-1v-2.01c0-.28-.11-.53-.29-.71-.79-.73-1.68-1.36-2.66-1.85-.33-.16-.56-.5-.56-.9v-3.1C15.15 9.25 13.6 9 12 9z"/>
</svg>
